<?xml version="1.0" encoding="utf-8"?><svg xmlns="http://www.w3.org/2000/svg" xmlns:xlink="http://www.w3.org/1999/xlink"><symbol viewBox="0 0 9 7" id="arrow" xmlns="http://www.w3.org/2000/svg">
    <path d="M8.93379 5.34848C8.93379 5.41991 8.89807 5.50027 8.8445 5.55384L8.39807 6.00027C8.3445 6.05384 8.26414 6.08956 8.19271 6.08956C8.12129 6.08956 8.04093 6.05384 7.98736 6.00027L4.47843 2.49134L0.9695 6.00027C0.915928 6.05384 0.835571 6.08956 0.764143 6.08956C0.683786 6.08956 0.612357 6.05384 0.558786 6.00027L0.112357 5.55384C0.0587856 5.50027 0.0230713 5.41991 0.0230713 5.34848C0.0230713 5.27706 0.0587856 5.1967 0.112357 5.14313L4.27307 0.982413C4.32664 0.928842 4.407 0.893127 4.47843 0.893127C4.54986 0.893127 4.63021 0.928842 4.68379 0.982413L8.8445 5.14313C8.89807 5.1967 8.93379 5.27706 8.93379 5.34848Z"/>
</symbol><symbol viewBox="0 0 40 43" id="file" xmlns="http://www.w3.org/2000/svg">
    <path d="M15.9933 23.8724V22.5867C15.9933 22.2251 16.2746 21.9439 16.6362 21.9439H30.779C31.1406 21.9439 31.4219 22.2251 31.4219 22.5867V23.8724C31.4219 24.234 31.1406 24.5153 30.779 24.5153H16.6362C16.2746 24.5153 15.9933 24.234 15.9933 23.8724Z"/>
    <path d="M16.6362 27.0867H30.779C31.1406 27.0867 31.4219 27.368 31.4219 27.7296V29.0153C31.4219 29.3769 31.1406 29.6581 30.779 29.6581H16.6362C16.2746 29.6581 15.9933 29.3769 15.9933 29.0153V27.7296C15.9933 27.368 16.2746 27.0867 16.6362 27.0867Z"/>
    <path d="M16.6362 32.2296H30.779C31.1406 32.2296 31.4219 32.5108 31.4219 32.8724V34.1581C31.4219 34.5198 31.1406 34.801 30.779 34.801H16.6362C16.2746 34.801 15.9933 34.5198 15.9933 34.1581V32.8724C15.9933 32.5108 16.2746 32.2296 16.6362 32.2296Z"/>
    <path fill-rule="evenodd" clip-rule="evenodd" d="M8.27901 15.8148C4.18382 15.8148 0.864014 12.495 0.864014 8.3998C0.864014 4.30461 4.18382 0.984802 8.27901 0.984802C11.723 0.984802 14.6186 3.33277 15.4524 6.51529H28.2076C29.2723 6.51529 30.7589 7.13806 31.5022 7.88136L37.7701 14.1492C38.5134 14.8925 39.1362 16.3791 39.1362 17.4439V40.5867C39.1362 41.6515 38.2723 42.5153 37.2076 42.5153H10.2076C9.14285 42.5153 8.27901 41.6515 8.27901 40.5867L8.27901 15.8148ZM10.8504 15.3568C13.4729 14.3871 15.3971 11.977 15.6626 9.08672H26.279V17.4439C26.279 18.5086 27.1429 19.3724 28.2076 19.3724H36.5647V39.9439H10.8504V15.3568ZM29.6741 9.6894C29.5335 9.54877 29.192 9.36797 28.8504 9.24743V16.801H36.404C36.2835 16.4595 36.1027 16.118 35.9621 15.9773L29.6741 9.6894ZM9.27901 9.39984H13.279V7.39984H9.27901V3.39984H7.27901V7.39984H3.27901V9.39984H7.27901V13.3998H9.27901V9.39984Z"/>
</symbol><symbol viewBox="0 0 18 21" id="file2" xmlns="http://www.w3.org/2000/svg">
    <path d="M16.8125 4.60899L13.3304 1.12685C12.9174 0.713902 12.0915 0.36792 11.5 0.36792H1.50002C0.9085 0.36792 0.428589 0.847831 0.428589 1.43935V19.2965C0.428589 19.888 0.9085 20.3679 1.50002 20.3679H16.5C17.0915 20.3679 17.5714 19.888 17.5714 19.2965V6.43935C17.5714 5.84783 17.2255 5.02194 16.8125 4.60899ZM11.8572 1.88578C12.0469 1.95274 12.2366 2.05319 12.3148 2.13131L15.8081 5.62462C15.8862 5.70274 15.9866 5.89247 16.0536 6.08221H11.8572V1.88578ZM16.1429 18.9394H1.85716V1.79649H10.4286V6.43935C10.4286 7.03087 10.9085 7.51078 11.5 7.51078H16.1429V18.9394ZM4.7143 9.29649V10.0108C4.7143 10.2117 4.87055 10.3679 5.07145 10.3679H12.9286C13.1295 10.3679 13.2857 10.2117 13.2857 10.0108V9.29649C13.2857 9.0956 13.1295 8.93935 12.9286 8.93935H5.07145C4.87055 8.93935 4.7143 9.0956 4.7143 9.29649ZM12.9286 11.7965H5.07145C4.87055 11.7965 4.7143 11.9527 4.7143 12.1536V12.8679C4.7143 13.0688 4.87055 13.2251 5.07145 13.2251H12.9286C13.1295 13.2251 13.2857 13.0688 13.2857 12.8679V12.1536C13.2857 11.9527 13.1295 11.7965 12.9286 11.7965ZM12.9286 14.6536H5.07145C4.87055 14.6536 4.7143 14.8099 4.7143 15.0108V15.7251C4.7143 15.926 4.87055 16.0822 5.07145 16.0822H12.9286C13.1295 16.0822 13.2857 15.926 13.2857 15.7251V15.0108C13.2857 14.8099 13.1295 14.6536 12.9286 14.6536Z"/>
</symbol><symbol viewBox="0 0 36 29" id="message" xmlns="http://www.w3.org/2000/svg">
    <path d="M33.4286 25.6071C33.4286 25.9487 33.1272 26.25 32.7857 26.25H3.21429C2.87277 26.25 2.57143 25.9487 2.57143 25.6071V10.1786C2.9933 10.6607 3.45536 11.1027 3.95759 11.5045C6.83036 13.7143 9.72322 15.9643 12.5156 18.2946C14.0223 19.5603 15.8906 21.1071 17.9799 21.1071H18.0201C20.1094 21.1071 21.9777 19.5603 23.4844 18.2946C26.2768 15.9643 29.1696 13.7143 32.0424 11.5045C32.5446 11.1027 33.0067 10.6607 33.4286 10.1786V25.6071ZM33.4286 4.49329C33.4286 6.20088 31.7813 8.43079 30.4754 9.45535C27.7835 11.5647 25.0915 13.6942 22.4196 15.8237C21.3549 16.6875 19.4263 18.5357 18.0201 18.5357H17.9799C16.5737 18.5357 14.6451 16.6875 13.5804 15.8237C10.9085 13.6942 8.21652 11.5647 5.52455 9.45535C3.71652 8.02901 2.57143 6.04017 2.57143 3.74999C2.57143 3.40847 2.87277 3.10713 3.21429 3.10713H32.7857C33.5491 3.10713 33.4286 3.99106 33.4286 4.49329ZM36 3.74999C36 1.98213 34.5536 0.535706 32.7857 0.535706H3.21429C1.44643 0.535706 0 1.98213 0 3.74999V25.6071C0 27.375 1.44643 28.8214 3.21429 28.8214H32.7857C34.5536 28.8214 36 27.375 36 25.6071V3.74999Z"/>
</symbol><symbol viewBox="0 0 40 27" id="money" xmlns="http://www.w3.org/2000/svg">
    <path d="M15.9286 18.5357V16.6071H18.5V10.8214H18.4598C18.1384 11.3237 17.8371 11.5446 17.3549 11.9665L15.808 10.3594L18.7812 7.60713H21.0714V16.6071H23.6429V18.5357H15.9286ZM26.2143 13.3928C26.2143 9.7366 24.0045 5.03571 19.7857 5.03571C15.567 5.03571 13.3571 9.7366 13.3571 13.3928C13.3571 17.0491 15.567 21.75 19.7857 21.75C24.0045 21.75 26.2143 17.0491 26.2143 13.3928ZM36.5 18.5357C33.6674 18.5357 31.3571 20.846 31.3571 23.6786H8.21429C8.21429 20.846 5.90402 18.5357 3.07143 18.5357V8.24999C5.90402 8.24999 8.21429 5.93972 8.21429 3.10713H31.3571C31.3571 5.93972 33.6674 8.24999 36.5 8.24999V18.5357ZM39.0714 1.82142C39.0714 1.11829 38.4888 0.535706 37.7857 0.535706H1.78571C1.08259 0.535706 0.5 1.11829 0.5 1.82142V24.9643C0.5 25.6674 1.08259 26.25 1.78571 26.25H37.7857C38.4888 26.25 39.0714 25.6674 39.0714 24.9643V1.82142Z"/>
</symbol><symbol viewBox="0 0 31 32" id="per" xmlns="http://www.w3.org/2000/svg">
    <path d="M25.7858 23.9643C25.7858 25.3705 24.6206 26.5357 23.2144 26.5357C21.8081 26.5357 20.643 25.3705 20.643 23.9643C20.643 22.558 21.8081 21.3928 23.2144 21.3928C24.6206 21.3928 25.7858 22.558 25.7858 23.9643ZM10.3572 8.5357C10.3572 9.94195 9.19207 11.1071 7.78582 11.1071C6.37957 11.1071 5.21439 9.94195 5.21439 8.5357C5.21439 7.12945 6.37957 5.96427 7.78582 5.96427C9.19207 5.96427 10.3572 7.12945 10.3572 8.5357ZM30.9287 23.9643C30.9287 19.7053 27.4733 16.25 23.2144 16.25C18.9555 16.25 15.5001 19.7053 15.5001 23.9643C15.5001 28.2232 18.9555 31.6786 23.2144 31.6786C27.4733 31.6786 30.9287 28.2232 30.9287 23.9643ZM29.0001 2.10713C29.0001 1.404 28.4175 0.821411 27.7144 0.821411H24.5001C24.0983 0.821411 23.7166 1.0223 23.4756 1.34373L2.26127 29.6294C2.10055 29.8504 2.0001 30.1116 2.0001 30.3928C2.0001 31.096 2.58269 31.6786 3.28582 31.6786H6.5001C6.90189 31.6786 7.28359 31.4777 7.52466 31.1562L28.7389 2.87052C28.8997 2.64954 29.0001 2.38838 29.0001 2.10713ZM15.5001 8.5357C15.5001 4.27677 12.0447 0.821411 7.78582 0.821411C3.52689 0.821411 0.0715332 4.27677 0.0715332 8.5357C0.0715332 12.7946 3.52689 16.25 7.78582 16.25C12.0447 16.25 15.5001 12.7946 15.5001 8.5357Z"/>
</symbol><symbol viewBox="0 0 21 20" id="qiwi" xmlns="http://www.w3.org/2000/svg">
    <path d="M16.9118 13.4559C16.9719 13.8435 16.845 14.0076 16.7167 14.0076C16.5885 14.0076 16.4028 13.85 16.1957 13.5373C15.9887 13.2245 15.9179 12.8769 16.0181 12.6986C16.0558 12.6368 16.1167 12.5915 16.1881 12.572C16.2595 12.5525 16.3359 12.5604 16.4015 12.5939C16.7421 12.718 16.8757 13.2233 16.9118 13.4559ZM15.0241 14.3061C15.4343 14.6408 15.5585 15.0389 15.3421 15.3193C15.2762 15.3977 15.1922 15.46 15.0968 15.5013C15.0014 15.5426 14.8974 15.5617 14.793 15.557C14.5642 15.5574 14.3425 15.4801 14.1665 15.3386C13.7951 15.0246 13.6856 14.5142 13.9287 14.2247C13.9824 14.1653 14.0494 14.1186 14.1247 14.0881C14.2 14.0577 14.2814 14.0443 14.3629 14.049C14.6077 14.0569 14.8418 14.1479 15.0241 14.3061ZM14.3402 17.5367C16.1022 17.5367 18.0139 18.1208 20.1313 19.9351C20.3424 20.1161 20.6243 19.8912 20.4399 19.6651C18.3599 17.1258 16.4322 16.6412 14.5178 16.2329C12.172 15.7315 10.9643 14.4535 10.1187 13.0514C9.95167 12.7723 9.87552 12.8214 9.86083 13.1806C9.84679 13.7131 9.88841 14.2456 9.98507 14.7701C9.89022 14.7701 9.79403 14.7701 9.69918 14.7701C8.49698 14.7701 7.32179 14.4252 6.3222 13.7792C5.3226 13.1331 4.54352 12.2148 4.08346 11.1404C3.6234 10.0661 3.50302 8.88385 3.73756 7.7433C3.9721 6.60275 4.55101 5.55509 5.40109 4.7328C6.25117 3.91051 7.33424 3.35053 8.51334 3.12366C9.69244 2.89679 10.9146 3.01322 12.0253 3.45824C13.136 3.90326 14.0853 4.65688 14.7532 5.62379C15.4211 6.5907 15.7776 7.72748 15.7776 8.89037C15.7782 9.11877 15.7653 9.347 15.7389 9.57397C15.0985 9.49597 14.4514 9.48427 13.8085 9.53908C13.5773 9.55846 13.6107 9.6683 13.7844 9.69285C15.7883 10.043 17.175 11.2435 17.4902 13.4339C17.4914 13.445 17.4961 13.4555 17.5037 13.4638C17.5114 13.4721 17.5215 13.478 17.5328 13.4804C17.544 13.4828 17.5558 13.4818 17.5664 13.4774C17.577 13.473 17.5859 13.4654 17.5918 13.4559C18.6342 11.7703 19.0706 9.79838 18.8329 7.84774C18.5952 5.89709 17.6968 4.07738 16.2778 2.67245C14.8588 1.26752 12.999 0.356356 10.9885 0.0810911C8.97799 -0.194174 6.92984 0.181935 5.1635 1.15075C3.39717 2.11957 2.01197 3.62662 1.22396 5.43683C0.435958 7.24704 0.289461 9.25863 0.807322 11.1578C1.32518 13.057 2.47828 14.737 4.08676 15.9358C5.69524 17.1346 7.66865 17.7848 9.69918 17.7849C11.0418 17.7887 12.379 17.5355 14.3402 17.5355V17.5367Z"/>
</symbol><symbol viewBox="0 0 35 35" id="search" xmlns="http://www.w3.org/2000/svg">
    <path d="M23.9285 14.9286C23.9285 19.8906 19.8906 23.9286 14.9285 23.9286C9.96645 23.9286 5.9285 19.8906 5.9285 14.9286C5.9285 9.96651 9.96645 5.92856 14.9285 5.92856C19.8906 5.92856 23.9285 9.96651 23.9285 14.9286ZM34.2142 31.6429C34.2142 30.9598 33.933 30.2969 33.4709 29.8348L26.5803 22.9442C28.2075 20.5937 29.0714 17.7812 29.0714 14.9286C29.0714 7.11383 22.7432 0.785706 14.9285 0.785706C7.11377 0.785706 0.785645 7.11383 0.785645 14.9286C0.785645 22.7433 7.11377 29.0714 14.9285 29.0714C17.7812 29.0714 20.5937 28.2076 22.9441 26.5803L29.8348 33.4509C30.2968 33.933 30.9598 34.2143 31.6428 34.2143C33.049 34.2143 34.2142 33.0491 34.2142 31.6429Z"/>
</symbol><symbol viewBox="0 0 12 14" id="vk" xmlns="http://www.w3.org/2000/svg">
    <path d="M11.1804 9.28625C11.1804 9.93665 11.0574 10.5079 10.8113 11.0001C10.5652 11.4923 10.2341 11.8995 9.81812 12.2218C9.32593 12.6085 8.78394 12.8839 8.19214 13.048C7.6062 13.212 6.85913 13.2941 5.95093 13.2941H0.712646V0.207153H5.33569C6.29663 0.207153 7.02319 0.245239 7.51538 0.321411C8.01343 0.391724 8.47925 0.544067 8.91284 0.778442C9.38159 1.0304 9.73022 1.36731 9.95874 1.78918C10.1931 2.21106 10.3103 2.69739 10.3103 3.24817C10.3103 3.88684 10.1492 4.4552 9.8269 4.95325C9.5105 5.45129 9.07104 5.8175 8.50854 6.05188V6.12219C9.31714 6.29211 9.9646 6.64075 10.4509 7.16809C10.9373 7.68958 11.1804 8.39563 11.1804 9.28625ZM6.97046 3.90735C6.97046 3.69641 6.91479 3.47961 6.80347 3.25696C6.698 3.0343 6.53101 2.87317 6.30249 2.77356C6.08569 2.67981 5.82788 2.63 5.52905 2.62415C5.23608 2.61243 4.79663 2.60657 4.21069 2.60657H3.98218V5.37512H4.39526C4.95776 5.37512 5.35034 5.36926 5.573 5.35754C5.80151 5.34583 6.03589 5.2843 6.27612 5.17297C6.53979 5.04993 6.72144 4.88 6.82104 4.66321C6.92065 4.44641 6.97046 4.19446 6.97046 3.90735ZM7.79663 9.22473C7.79663 8.82043 7.7146 8.50403 7.55054 8.27551C7.38647 8.047 7.14038 7.87415 6.81226 7.75696C6.61304 7.68079 6.33765 7.63977 5.98608 7.63391C5.64038 7.62219 5.17456 7.61633 4.58862 7.61633H3.98218V10.8947H4.15796C5.01343 10.8947 5.60522 10.8888 5.93335 10.8771C6.26147 10.8654 6.59546 10.7863 6.9353 10.6398C7.23413 10.5109 7.45093 10.3234 7.58569 10.0773C7.72632 9.82532 7.79663 9.54114 7.79663 9.22473Z"/>
</symbol><symbol viewBox="0 0 19 18" id="web-money" xmlns="http://www.w3.org/2000/svg">
    <path d="M9.34077 0C10.751 0 12.0928 0.323103 13.2969 0.901077C13.4857 0.986269 13.6758 1.08823 13.864 1.19028L13.0384 1.92159L11.8007 0.646297L9.66802 2.51651L8.41214 1.17307L4.49048 4.65889L7.00126 7.39646L6.02108 8.24641L8.49822 10.984L7.51795 11.8336L11.0613 15.7274L13.1585 13.823L14.9826 15.8639C14.6211 16.136 14.2255 16.4086 13.796 16.6462C12.4886 17.3773 10.9747 17.8016 9.35814 17.8016C4.38691 17.8016 0.345546 13.8066 0.345546 8.89314C0.327991 4.01286 4.37007 0 9.34077 0ZM7.68931 8.34864L9.83937 6.44418L11.7662 8.56952L9.61567 10.4738L7.68931 8.34864ZM9.22053 12.0214L11.3531 10.1001L13.2969 12.2253L11.1467 14.1298L9.22053 12.0214ZM6.15942 4.72713L8.30886 2.82267L10.2352 4.948L8.08507 6.85238L6.15942 4.72713ZM10.0974 3.70661L11.6971 2.27842L13.1423 3.85978L11.5426 5.30484L10.0974 3.70661ZM12.9529 10.2528L14.5521 8.82456L15.9972 10.4224L14.3974 11.8516L12.9529 10.2528ZM14.3631 13.4668L15.9629 12.0382L17.4068 13.6195L15.8076 15.0644L14.3631 13.4668ZM15.0168 6.12107L16.0831 5.16879L17.0459 6.22339L15.9799 7.17531L15.0168 6.12107ZM13.6408 2.97548L14.7071 2.00651L15.6707 3.07753L14.6036 4.02972L13.6408 2.97548ZM16.3755 9.26693L17.4417 8.31474L18.422 9.36899L17.3389 10.3209L16.3755 9.26693ZM11.5768 6.90341L13.1766 5.47513L14.6211 7.05614L13.022 8.48469L11.5768 6.90341Z"/>
</symbol></svg>